<?xml version="1.0"?>
<svg width="512" height="512" xmlns="http://www.w3.org/2000/svg" xmlns:svg="http://www.w3.org/2000/svg">
 <!--!Font Awesome Free 6.5.2 by @fontawesome - https://fontawesome.com License - https://fontawesome.com/license/free Copyright 2024 Fonticons, Inc.-->
 <g class="layer">
  <title>Layer 1</title>
  <path d="m-1.8,244.7c-1.2,35.3 26.4,65 61.7,66.2l3.3,0.1l-8.2,1.9c-34.5,7.6 -56.3,41.8 -48.7,76.3s41.9,56.3 76.4,48.6l173,-38.3c2.3,2.9 4.7,5.7 7.1,8.5l18.4,20.3c16.7,18.2 40.3,28.7 65.1,28.7l10.2,0c54.1,0 104.1,-28.7 131.3,-75.4l1.5,-2.6c13.6,-23.2 20.7,-49.7 20.7,-76.6l0,-125.4c0,-66.3 -53.7,-120 -120,-120l-8,0l-96,0c-35.3,0 -64,28.7 -64,64c0,2.8 0.2,5.6 0.5,8.3c-19.4,11 -32.5,31.8 -32.5,55.7c0,0.8 0,1.6 0,2.4l-125.6,-4.4c-35.3,-1.2 -65,26.4 -66.2,61.7zm63.4,18.2c-8.8,-0.3 -15.7,-7.7 -15.4,-16.5s7.7,-15.7 16.5,-15.4l161.5,5.6c9.8,0.3 18.7,-5.3 22.7,-14.2s2.2,-19.3 -4.5,-26.4c-2.8,-2.9 -4.4,-6.7 -4.4,-11c0,-8.8 7.2,-16 16,-16c9.1,0 17.4,-5.1 21.5,-13.3s3.2,-17.9 -2.3,-25.1c-2,-2.7 -3.2,-6 -3.2,-9.6c0,-8.8 7.2,-16 16,-16l96,0l8,0c39.8,0 72,32.2 72,72l0,125.4c0,18.4 -4.9,36.5 -14.2,52.4l-1.5,2.6c-18.6,32 -52.8,51.6 -89.8,51.6l-10.2,0c-11.3,0 -22,-4.8 -29.6,-13.1l-17.5,15.9l17.5,-15.9l-18.4,-20.3c-0.6,-0.6 -1.1,-1.3 -1.7,-1.9l57,-13.2c8.6,-2 14,-10.6 12,-19.2s-10.6,-14 -19.2,-12l-85.6,19.7l-188.5,42c-8.6,1.9 -17.2,-3.5 -19.1,-12.2s3.5,-17.2 12.2,-19.1l187.5,-41.6c10.2,-2.3 17.8,-10.9 18.7,-21.4l0.1,-1c0.6,-6.6 -1.5,-13.1 -5.8,-18.1s-10.6,-7.9 -17.2,-8.2l-187.1,-6.5z" fill="#7d2ae8" id="svg_1" transform="rotate(90 254.081 257)"/>
 </g>
</svg>